# xmcd
#
# Track frame offsets:
#	150
#	16585
#	32240
#	55322
#	70887
#	94837
#	113647
#	132197
#	152612
#	169335
#	184310
#	198892
#	216180
#	235497
#	250972
#	267130
#	288660
#	306362
#
# Disc length: 4325 seconds
#
# Revision: 0
# Processed by: cddbd v1.5.2PL0 Copyright (c) Steve Scherf et al.
# Submitted via: EasyCDDAExtractor 16.0.9.1
#
DISCID=0610e312
DTITLE=Various Artist - Power Dance Vol.25
DYEAR=1996
DGENRE=Dance
TTITLE0=Twenty 4 Seven Feat. Stay-C and Stella - We Are The World (Radio Version
TTITLE0=)
TTITLE1=Fugees - Ready Or Not (Radio Edit)
TTITLE2=Scooter - I'm Raving (Extended Remix)
TTITLE3=\nIce MC    \n  \n  - Music For Money (Radio Mix)
TTITLE4=\nSqueezer    \n  \n   - Blue Jeans (Ola Ela Mix)
TTITLE5=\nWarren G Feat. Adina Howard    \n  \n - What's Love Got To Do With I
TTITLE5=t (Radio Mix)
TTITLE6=\nCondruction    \n  \n - What Is In Love (Radio Mix)
TTITLE7=\nB.B.E.    \n  \n - Seven Days and One Week (Regular Mix)
TTITLE8=\nOpen Arms Feat. Rowetta    \n  \n - Hey Mr. DJ (Kickin Radio Edit)
TTITLE9=Sash! - It's My Life (Radio Edit)
TTITLE10=\nSoundlovers    \n  \n - Run-A-Way (Radio Version)
TTITLE11=\nFreebee    \n  \n - True (Video Cut)
TTITLE12=\nBayside Boys    \n  \n - Caliente (Radio Mix)
TTITLE13=\nAnn Bell Fell    \n  \n - Around And Round (Radio Edit)
TTITLE14=\nBoris Dlugosch    \n  \n - Booom! (Mouse T's Radio Mix)
TTITLE15=Suggs feat. Louchie Lou and Michie One  - No More Alcohol (Rapinos Danc
TTITLE15=e Mix)
TTITLE16=\nGarcia    \n  \n  - Vamonos (Hey Chico Are You Ready) (Radio Edit)
TTITLE17=\nErrol Brown    \n  \n - Love Is Love (Album Version)  
EXTD=
EXTT0=
EXTT1=
EXTT2=
EXTT3=
EXTT4=
EXTT5=
EXTT6=
EXTT7=
EXTT8=
EXTT9=
EXTT10=
EXTT11=
EXTT12=
EXTT13=
EXTT14=
EXTT15=
EXTT16=
EXTT17=
PLAYORDER=
